<svg width="127" height="21" viewBox="0 0 127 21" fill="none" xmlns="http://www.w3.org/2000/svg">
<path d="M0.431091 20.5662V1.09856H8.26097C9.6801 1.09856 10.9049 1.38373 11.9353 1.95407C12.9719 2.51808 13.7709 3.30705 14.3324 4.32099C14.8938 5.3286 15.1746 6.50097 15.1746 7.8381C15.1746 9.18157 14.8877 10.3571 14.3139 11.3647C13.7462 12.366 12.9348 13.1423 11.8797 13.6936C10.8247 14.2449 9.57212 14.5206 8.12214 14.5206H3.29094V10.8134H7.27067C7.96172 10.8134 8.53863 10.6898 9.00139 10.4427C9.47031 10.1955 9.8251 9.85014 10.0657 9.40654C10.3064 8.95661 10.4267 8.43379 10.4267 7.8381C10.4267 7.23607 10.3064 6.71643 10.0657 6.27917C9.8251 5.83557 9.47031 5.49336 9.00139 5.25255C8.53246 5.01174 7.95555 4.89133 7.27067 4.89133H5.0124V20.5662H0.431091Z" fill="black"/>
<path d="M35.3231 10.8324C35.3231 12.9743 34.9221 14.7899 34.1199 16.2792C33.3178 17.7684 32.2319 18.8996 30.8621 19.6727C29.4985 20.4458 27.9683 20.8324 26.2715 20.8324C24.5686 20.8324 23.0353 20.4427 21.6717 19.6632C20.3081 18.8837 19.2253 17.7525 18.4232 16.2697C17.6272 14.7804 17.2292 12.968 17.2292 10.8324C17.2292 8.69045 17.6272 6.87486 18.4232 5.38563C19.2253 3.8964 20.3081 2.76522 21.6717 1.99209C23.0353 1.21896 24.5686 0.832397 26.2715 0.832397C27.9683 0.832397 29.4985 1.21896 30.8621 1.99209C32.2319 2.76522 33.3178 3.8964 34.1199 5.38563C34.9221 6.87486 35.3231 8.69045 35.3231 10.8324ZM30.64 10.8324C30.64 9.56497 30.4641 8.494 30.1124 7.61947C29.7669 6.74495 29.2671 6.08271 28.6131 5.63278C27.9652 5.18284 27.1847 4.95787 26.2715 4.95787C25.3645 4.95787 24.584 5.18284 23.93 5.63278C23.276 6.08271 22.7731 6.74495 22.4214 7.61947C22.0759 8.494 21.9031 9.56497 21.9031 10.8324C21.9031 12.0998 22.0759 13.1708 22.4214 14.0453C22.7731 14.9198 23.276 15.5821 23.93 16.032C24.584 16.482 25.3645 16.7069 26.2715 16.7069C27.1847 16.7069 27.9652 16.482 28.6131 16.032C29.2671 15.5821 29.7669 14.9198 30.1124 14.0453C30.4641 13.1708 30.64 12.0998 30.64 10.8324Z" fill="black"/>
<path d="M48.2433 6.93506C48.1816 6.23797 47.9071 5.69615 47.4196 5.30959C46.9384 4.91668 46.2504 4.72023 45.3557 4.72023C44.7634 4.72023 44.2698 4.79944 43.8749 4.95787C43.48 5.1163 43.1838 5.33493 42.9864 5.61377C42.789 5.88626 42.6871 6.19995 42.681 6.55483C42.6686 6.84634 42.7242 7.10299 42.8476 7.32479C42.9771 7.54659 43.1622 7.74304 43.4029 7.91415C43.6497 8.07891 43.9459 8.22467 44.2914 8.35141C44.6369 8.47815 45.0256 8.58905 45.4575 8.68411L47.0864 9.06434C48.0243 9.27346 48.8511 9.5523 49.5668 9.90084C50.2887 10.2494 50.8934 10.6645 51.3808 11.1461C51.8745 11.6277 52.2477 12.1822 52.5007 12.8096C52.7537 13.437 52.8833 14.1404 52.8894 14.9198C52.8833 16.1493 52.5809 17.2044 51.9824 18.0852C51.3839 18.9661 50.5232 19.641 49.4002 20.11C48.2834 20.5789 46.9353 20.8134 45.3557 20.8134C43.77 20.8134 42.3879 20.5694 41.2094 20.0814C40.0309 19.5935 39.1147 18.852 38.4606 17.8571C37.8066 16.8622 37.4703 15.6043 37.4518 14.0833H41.8388C41.8758 14.7107 42.0393 15.2335 42.3293 15.6518C42.6193 16.07 43.0173 16.3869 43.5232 16.6024C44.0353 16.8178 44.6277 16.9256 45.3002 16.9256C45.9172 16.9256 46.4417 16.84 46.8736 16.6689C47.3117 16.4978 47.6479 16.2602 47.8824 15.956C48.1169 15.6518 48.2372 15.3032 48.2433 14.9103C48.2372 14.5428 48.1261 14.2291 47.9102 13.9693C47.6942 13.7031 47.361 13.475 46.9106 13.2849C46.4663 13.0884 45.8987 12.9078 45.2076 12.743L43.227 12.2678C41.5858 11.8812 40.2931 11.257 39.3491 10.3951C38.4051 9.52695 37.9362 8.35458 37.9423 6.87803C37.9362 5.67397 38.2508 4.61884 38.8864 3.71263C39.5219 2.80641 40.4011 2.09983 41.5241 1.59285C42.647 1.08588 43.9273 0.832397 45.365 0.832397C46.8335 0.832397 48.1076 1.08905 49.1874 1.60236C50.2733 2.10933 51.1155 2.82226 51.714 3.74114C52.3125 4.66003 52.618 5.72467 52.6303 6.93506H48.2433Z" fill="black"/>
<path d="M54.5831 4.91985V1.09856H70.6039V4.91985H64.8564V20.5662H60.3399V4.91985H54.5831Z" fill="black"/>
<path d="M89.8662 10.8324C89.8662 12.9743 89.4651 14.7899 88.663 16.2792C87.8609 17.7684 86.775 18.8996 85.4052 19.6727C84.0416 20.4458 82.5114 20.8324 80.8146 20.8324C79.1117 20.8324 77.5784 20.4427 76.2148 19.6632C74.8512 18.8837 73.7684 17.7525 72.9662 16.2697C72.1703 14.7804 71.7723 12.968 71.7723 10.8324C71.7723 8.69045 72.1703 6.87486 72.9662 5.38563C73.7684 3.8964 74.8512 2.76522 76.2148 1.99209C77.5784 1.21896 79.1117 0.832397 80.8146 0.832397C82.5114 0.832397 84.0416 1.21896 85.4052 1.99209C86.775 2.76522 87.8609 3.8964 88.663 5.38563C89.4651 6.87486 89.8662 8.69045 89.8662 10.8324ZM85.1831 10.8324C85.1831 9.56497 85.0072 8.494 84.6555 7.61947C84.31 6.74495 83.8102 6.08271 83.1562 5.63278C82.5083 5.18284 81.7278 4.95787 80.8146 4.95787C79.9076 4.95787 79.1271 5.18284 78.4731 5.63278C77.819 6.08271 77.3162 6.74495 76.9645 7.61947C76.6189 8.494 76.4462 9.56497 76.4462 10.8324C76.4462 12.0998 76.6189 13.1708 76.9645 14.0453C77.3162 14.9198 77.819 15.5821 78.4731 16.032C79.1271 16.482 79.9076 16.7069 80.8146 16.7069C81.7278 16.7069 82.5083 16.482 83.1562 16.032C83.8102 15.5821 84.31 14.9198 84.6555 14.0453C85.0072 13.1708 85.1831 12.0998 85.1831 10.8324Z" fill="black"/>
<path d="M92.5409 20.5662V1.09856H100.371C101.79 1.09856 103.015 1.36155 104.045 1.88753C105.082 2.40718 105.881 3.15496 106.442 4.13088C107.004 5.10046 107.284 6.25065 107.284 7.58145C107.284 8.93126 106.998 10.0783 106.424 11.0225C105.85 11.9604 105.035 12.6765 103.98 13.1708C102.925 13.6588 101.676 13.9027 100.232 13.9027H95.2805V10.1955H99.3805C100.072 10.1955 100.648 10.1036 101.111 9.91985C101.58 9.72974 101.935 9.44457 102.176 9.06434C102.416 8.67777 102.537 8.18347 102.537 7.58145C102.537 6.97942 102.416 6.48195 102.176 6.08905C101.935 5.68981 101.58 5.39197 101.111 5.19552C100.642 4.99273 100.065 4.89133 99.3805 4.89133H97.1222V20.5662H92.5409ZM103.212 11.6689L107.932 20.5662H102.934L98.3069 11.6689H103.212Z" fill="black"/>
<path d="M108.013 1.09856H113.131L117.139 9.24495H117.305L121.313 1.09856H126.431L119.499 14.0643V20.5662H114.945V14.0643L108.013 1.09856Z" fill="black"/>
</svg>
